<svg
  width="20"
  height="20"
  viewBox="0 0 35 34"
  fill="none"
  xmlns="http://www.w3.org/2000/svg"
  role="presentation"
  style="color:white;"
>
  <path
    d="M18.5753 3.24173H21.4103V1.11025H14.2739V3.24173H16.2291V8.98488C15.9945 9.06383 15.7599 9.12303 15.5448 9.18224C14.9387 9.32039 14.1957 9.39934 13.3159 9.39934C12.7098 9.39934 12.1428 9.35986 11.6149 9.30066C11.5367 9.28092 11.4389 9.28092 11.3607 9.26118C11.3412 9.24145 11.3216 9.22171 11.3021 9.20198C11.1065 8.96515 10.911 8.76779 10.7351 8.59016C11.2434 8.25465 11.654 7.85993 11.9668 7.38627C12.4361 6.71525 12.6511 5.90608 12.6511 4.99823C12.6511 3.7746 12.2601 2.7878 11.4585 1.99836C10.6569 1.20893 9.52285 0.814209 8.05647 0.814209C7.17664 0.814209 6.37501 0.912889 5.6907 1.12998C5.00639 1.34708 4.38073 1.58391 3.83328 1.87995L4.5958 3.95222C5.18236 3.63645 5.74936 3.37988 6.27726 3.20226C6.82471 3.02463 7.41126 2.94569 8.03692 2.94569C8.68213 2.94569 9.22958 3.10358 9.65972 3.43909C10.1094 3.7746 10.3245 4.28773 10.3245 4.99823C10.3245 5.72845 10.0508 6.32053 9.5033 6.77446C8.95585 7.22838 8.05647 7.46522 6.82471 7.54416L7.03978 9.63617C7.56767 9.61643 8.07602 9.53749 8.54526 9.43881C8.9754 9.81379 9.34689 10.2282 9.69882 10.6822C10.2854 11.4321 10.5982 12.3005 10.5982 13.2676C10.5982 13.9978 10.3831 14.5504 9.97254 14.9057C9.56196 15.2609 9.03406 15.4385 8.38885 15.4385C7.62633 15.4385 6.92246 15.1622 6.29681 14.6096C5.67115 14.057 5.06504 13.2478 4.51759 12.2216C3.97014 11.1953 3.42269 9.95194 2.8948 8.53096L0.783203 9.22171C1.54572 11.215 2.30824 12.8334 3.09031 14.057C3.87239 15.3004 4.69356 16.1885 5.59294 16.7608C6.49233 17.3134 7.46991 17.5897 8.56481 17.5897C9.40554 17.5897 10.1681 17.4516 10.8133 17.1556C11.4585 16.8595 11.9864 16.4056 12.3579 15.7938C12.7293 15.182 12.9249 14.432 12.9249 13.5636C12.9249 12.9913 12.8662 12.4781 12.7293 12.044C12.6707 11.8466 12.5925 11.6492 12.5143 11.4519C12.5729 11.4519 12.6316 11.4716 12.6902 11.4716C13.0422 11.5308 13.3746 11.5506 13.6678 11.5506C14.3717 11.5506 15.0365 11.4913 15.6621 11.3729C15.8576 11.3335 16.0336 11.294 16.2291 11.2348V20.0962H18.5753V3.24173Z"
    fill="currentColor"
  />
  <path
    d="M27.0413 12.0637H24.3822L17.148 33.8719H19.8853L22.0947 27.1025H29.3288L31.5577 33.8719H34.295L27.0413 12.0637ZM22.779 24.7144L24.8906 17.9253C24.9688 17.649 25.0665 17.3134 25.1643 16.9582C25.262 16.603 25.3598 16.228 25.4576 15.853C25.5553 15.4583 25.614 15.0833 25.6922 14.728C25.7508 14.9846 25.829 15.3398 25.9464 15.7543C26.0637 16.1688 26.1614 16.5832 26.2787 16.9779C26.396 17.3727 26.4743 17.6884 26.5329 17.945L28.6445 24.7341H22.779V24.7144Z"
    fill="currentColor"
  />
</svg>